<svg xmlns="http://www.w3.org/2000/svg" xmlns:svg="http://www.w3.org/2000/svg" id="svg2" width="520" height="64" version="1.1"><metadata id="metadata8"/><path id="path10" d="M 0,63.999999 V 22 H 43.999999 V 20 H 0 V 0 h 63.999999 v 63.999999 h -20 V 42 H 20 v 2 h 21.999999 v 19.999999 z" style="fill:#535d6c"/><path style="fill:#535d6c" id="path5121" d="M 75.999999,0 H 118 v 43.999999 h 2 V 0 h 20 V 63.999999 H 75.999999 c 0.03867,-19.975266 1.21505,-20 22,-20 V 0 l -2,3.13e-4 v 44.03356 l -20,19.966102 z"/><path id="path5123" d="m 216,0 v 42 h -44 v 2 h 44 V 64 H 152 V 0 c 19.97527,0.03867 20,1.21505 20,22 h 44 l -3.1e-4,-2 H 171.96613 L 152.00002,0 Z" style="fill:#535d6c"/><path style="fill:#535d6c" id="path5125" d="M 292,63.999999 V 22 h -44 v -2 h 44 V 0 h -64 v 42.011827 l 20,-0.01183 v 0 h 24 v 2.09375 h -44 l -0.009,19.906249 z"/><path id="path5127" d="m 324.3125,63.999999 c 0,-43.882671 0.18277,-0.110242 -0.0915,-43.999999 h 0.88388 42.89515 V 0 h -64 c 0,63.768424 -0.009,0.109806 -0.009,63.999996 z" style="fill:#535d6c"/><path id="path5129" d="m 380,63.999999 h 42 V 20.000001 h 2 v 43.999998 h 20 V 0 h -64 c 0.0387,19.975267 1.21505,20.000001 22,20.000001 v 43.999998 l -2,-3.13e-4 V 19.966127 L 380,2.4e-5 Z" style="fill:#535d6c"/><path style="fill:#535d6c" id="path5131" d="m 520,0 v 42 h -44 v 2 h 44 V 64 H 456 V 0 c 19.97527,0.03867 20,1.21505 20,22 h 44 l -3.1e-4,-2 H 475.96613 L 456.00002,0 Z"/><path style="fill:#535d6c" id="path5135" d="m 332.34911,63.999999 c 0,-44.007671 -0.003,-0.02174 -0.003,-43.999999 0,0 30.24668,0 35.65403,0 V 0 h -64 c 0,63.768424 -0.009,0.109806 -0.009,63.999996 z"/><path id="path5137" d="m 334.99382,63.999999 c 0,0 -0.003,-0.02174 -0.003,-43.999999 h 32.71653 V 0 h -63.70721 c 0,63.768424 -0.009,0.109806 -0.009,63.999996 z" style="fill:#535d6c"/><path style="fill:#535d6c" id="path5162" d="m 347.67867,0 c 0,43.882671 -0.18277,0.110242 0.0915,43.999999 h -0.88388 -42.89515 v 20 h 64 c 0,-63.768424 0.009,-0.109806 0.009,-63.999996 z"/><path id="path5164" d="m 339.64206,0 c 0,44.007671 0.003,0.02174 0.003,43.999999 0,0 -30.24668,0 -35.65403,0 v 20 h 64 c 0,-63.768424 0.009,-0.109806 0.009,-63.999996 z" style="fill:#535d6c"/><path style="fill:#535d6c" id="path5166" d="m 336.99735,0 c 0,0 0.003,0.02174 0.003,43.999999 h -32.71653 v 20 h 63.70721 c 0,-63.768424 0.009,-0.109806 0.009,-63.999996 z"/></svg>