<svg class="block size-full" fill="url(#Gradient2)" stroke="#222222aa" stroke-width="2" viewBox="0 0 160 160"
  xmlns="http://www.w3.org/2000/svg">
  <defs>
    <linearGradient id="Gradient3" x1="0" x2="0" y1="0" y2="1">
      <stop offset="0%" stop-color="#94e4ff" stop-opacity="10"></stop>
      <stop offset="60%" stop-color="#0badff" stop-opacity="10"></stop>
      <stop offset="100%" stop-color="#0872A8" stop-opacity="10"></stop>
    </linearGradient>
    <linearGradient id="Gradient2" x1="0" x2="0" y1="1" y2="1">
      <stop offset="0%" stop-color="#00caff" stop-opacity="30"></stop>
      <stop offset="70%" stop-color="#0badff" stop-opacity="80"></stop>
      <stop offset="100%" stop-color="#0872A8" stop-opacity="90"></stop>
    </linearGradient>
    <linearGradient id="Gradient1" x1="0" x2="1" y1="0" y2="0">
      <stop offset="0%" stop-color="#e9efff" stop-opacity="85"></stop>
      <stop offset="50%" stop-color="#f5143d" stop-opacity="90"></stop>
      <stop offset="100%" stop-color="#feee70" stop-opacity="90"></stop>
    </linearGradient>


  </defs>
  <circle cx="80" cy="80" r="50" fill="url(#Gradient2)"></circle>
  <g transform=" matrix(0.866, -0.5, -0.25, -0.443, 80, 80)">
    <path d="M 0,70 A 65,70 0 0,0 65,0 5,5 0 0,1 75,0 75,70 0 0,1 0,70Z" fill="url(#Gradient1)" stroke="#222222aa"
      stroke-width="1">
      <animateTransform attributeName="transform" type="rotate" from="345 -10 10" to="0 0 0" dur="5s"
        repeatCount="indefinite"></animateTransform>
    </path>
  </g>

  <path d="M 50,0 A 50,50 0 0,0 -50,0Z" fill="url(#Gradient3)" stroke="#00000000" stroke-width="1"
    transform="matrix(0.836, -0.495, 0.495, 0.836, 80, 80)"></path>

  <!-- START: Text rendering updated -->
  <g font-family="Dimitri" font-size="54" text-anchor="middle" dominant-baseline="central">
    <!-- Part 1: Stacked text to create the solid "3D" extrusion effect -->
    <!-- These are ordered from back to front -->

    <text x="76" y="86" stroke="#2d2d2d" fill="#2d2d2d">TLH</text>


    <text x="76" y="80" fill="#ffffff" stroke="#3c3c3c" stroke-opacity="1" stroke-width="2.5" stroke-linejoin="round"
      paint-order="stroke" filter="url(#blurry-shadows)">
      TLH
    </text>
  </g>
  <!-- END: Text rendering updated -->
</svg>