<svg xmlns="http://www.w3.org/2000/svg" fill="url(#Gradient2)" stroke="#222222aa" stroke-width="2" class="block size-full" viewBox="0 0 160 160"><defs><linearGradient id="Gradient3" x1="0" x2="0" y1="0" y2="1"><stop offset="0%" stop-color="#94e4ff" stop-opacity="10"/><stop offset="60%" stop-color="#0badff" stop-opacity="10"/><stop offset="100%" stop-color="#0872A8" stop-opacity="10"/></linearGradient><linearGradient id="Gradient2" x1="0" x2="0" y1="1" y2="1"><stop offset="0%" stop-color="#00caff" stop-opacity="30"/><stop offset="70%" stop-color="#0badff" stop-opacity="80"/><stop offset="100%" stop-color="#0872A8" stop-opacity="90"/></linearGradient><linearGradient id="Gradient1" x1="0" x2="1" y1="0" y2="0"><stop offset="0%" stop-color="#e9efff" stop-opacity="85"/><stop offset="50%" stop-color="#f5143d" stop-opacity="90"/><stop offset="100%" stop-color="#feee70" stop-opacity="90"/></linearGradient></defs><circle cx="80" cy="80" r="50" fill="url(#Gradient2)"/><g><path fill="url(#Gradient1)" stroke="#222222aa" stroke-width="1" d="M 0,70 A 65,70 0 0,0 65,0 5,5 0 0,1 75,0 75,70 0 0,1 0,70Z" transform="matrix(0.866, -0.5, -0.25, -0.443, 80, 80)"><animateTransform attributeName="transform" dur="5s" from="345 -10 10" repeatCount="indefinite" to="0 0 0" type="rotate"/></path></g><path fill="url(#Gradient3)" stroke="#00000000" stroke-width="1" d="M 50,0 A 50,50 0 0,0 -50,0Z" transform="matrix(0.836, -0.495, 0.495, 0.836, 80, 80)"/><g dominant-baseline="central" font-family="Dimitri" font-size="54" text-anchor="middle"><text x="76" y="86" fill="#2d2d2d" stroke="#2d2d2d">TLH</text><text x="76" y="80" fill="#fff" stroke="#3c3c3c" stroke-linejoin="round" stroke-opacity="1" stroke-width="2.5" filter="url(#blurry-shadows)" paint-order="stroke">TLH</text></g></svg>