<?xml version="1.0" standalone="no"?>
<!DOCTYPE svg PUBLIC "-//W3C//DTD SVG 20010904//EN"
 "http://www.w3.org/TR/2001/REC-SVG-20010904/DTD/svg10.dtd">
<svg version="1.0" xmlns="http://www.w3.org/2000/svg"
 width="512.000000pt" height="512.000000pt" viewBox="0 0 512.000000 512.000000"
 preserveAspectRatio="xMidYMid meet">
<metadata>
Created by potrace 1.11, written by Peter Selinger 2001-2013
</metadata>
<g transform="translate(0.000000,512.000000) scale(0.100000,-0.100000)"
fill="#000000" stroke="none">
<path d="M2448 4423 c-10 -2 -18 -9 -18 -14 0 -5 -4 -9 -10 -9 -5 0 -22 -13
-38 -28 -16 -16 -475 -788 -1021 -1718 l-993 -1689 5 -73 c3 -57 8 -76 25 -90
11 -10 24 -30 27 -45 4 -15 14 -27 21 -27 8 0 20 -11 26 -25 6 -14 19 -25 29
-25 9 0 19 -6 21 -12 4 -10 416 -14 1989 -20 l1984 -7 68 21 c37 11 67 26 67
33 0 7 11 16 25 19 16 4 25 13 25 26 0 11 7 20 15 20 8 0 17 11 21 25 3 14 12
25 19 25 20 0 26 60 15 140 -9 65 -19 88 -89 204 -44 72 -476 801 -962 1621
-485 820 -886 1492 -890 1493 -5 2 -9 10 -9 18 0 8 -4 14 -10 14 -5 0 -10 7
-10 15 0 8 -11 17 -24 21 -14 3 -27 12 -30 20 -3 8 -12 14 -21 14 -8 0 -15 6
-15 14 0 27 -179 56 -242 39z m66 -65 c-4 -7 -35 -47 -69 -88 -86 -106 -151
-197 -233 -330 -39 -63 -83 -128 -98 -145 l-26 -30 28 50 c106 191 291 494
317 521 20 21 42 33 60 33 20 1 26 -3 21 -11z m213 -77 c15 -15 37 -43 47 -61
l19 -33 -29 6 c-16 3 -74 1 -129 -5 -125 -14 -175 -6 -175 26 0 37 36 59 123
77 110 23 111 23 144 -10z m122 -190 c9 -14 28 -46 44 -72 l27 -48 -142 1
c-114 1 -163 -3 -240 -20 -111 -25 -146 -27 -183 -10 -20 9 -25 18 -25 48 0
33 4 40 33 53 65 31 93 40 152 49 33 4 83 12 110 17 28 5 85 8 129 8 71 -2 80
-5 95 -26z m97 -197 c19 -5 53 -56 132 -194 11 -19 47 -80 80 -135 52 -85 59
-101 46 -110 -49 -31 -50 -34 -30 -50 11 -8 34 -15 52 -15 35 0 48 -14 93 -96
l23 -40 -67 -67 c-78 -78 -91 -83 -267 -91 l-127 -6 -76 33 -76 34 -77 -19
c-64 -16 -108 -18 -257 -16 -168 2 -187 0 -281 -25 -118 -31 -178 -55 -237
-95 -23 -16 -62 -36 -86 -46 -23 -9 -59 -28 -79 -41 -43 -29 -89 -32 -107 -8
-22 29 -1 53 46 53 29 0 57 11 105 42 85 53 68 68 -35 32 -40 -14 -74 -24 -76
-22 -1 2 8 19 21 39 20 33 29 37 77 43 30 4 66 4 81 0 16 -4 35 -1 49 8 30 21
117 44 212 58 161 24 160 24 163 47 5 31 -36 40 -79 18 -25 -13 -47 -16 -92
-11 -47 5 -73 1 -133 -19 -123 -41 -195 -28 -164 29 7 14 22 27 34 30 39 12
311 56 341 56 17 0 46 10 65 21 32 20 33 22 15 35 -25 18 -47 18 -93 -2 -24
-10 -86 -19 -172 -24 -74 -4 -136 -7 -137 -6 -1 0 15 28 35 62 l37 61 25 -18
c23 -17 39 -17 190 -10 107 5 196 5 253 -2 70 -9 99 -8 145 3 31 8 102 15 157
15 96 1 145 13 145 36 0 5 -12 14 -27 20 -22 8 -44 6 -101 -11 -44 -13 -80
-19 -90 -14 -20 9 -225 17 -401 15 -141 -2 -171 8 -171 59 0 35 37 67 89 75
20 4 61 15 92 26 72 25 81 24 118 -7 29 -24 34 -25 61 -14 34 14 41 49 15 70
-12 10 -21 10 -41 1 -14 -6 -48 -11 -77 -11 -63 0 -111 26 -121 66 -6 24 -3
33 23 56 44 40 100 52 251 53 74 1 143 5 154 10 10 4 32 11 50 15 37 9 272 12
302 4z m-955 -311 c-12 -20 -14 -14 -5 12 4 9 9 14 11 11 3 -2 0 -13 -6 -23z
m1406 -425 c6 -7 21 -33 34 -56 23 -43 23 -44 4 -58 -49 -36 -185 5 -185 56 0
10 12 29 26 44 21 20 37 26 69 26 23 0 47 -6 52 -12z m-927 -110 c0 -7 -29
-28 -65 -47 -36 -18 -65 -37 -65 -42 0 -4 10 -13 21 -20 17 -9 41 -5 123 21
55 17 112 36 126 42 104 44 168 58 264 58 110 0 136 -6 136 -31 0 -18 -7 -18
-103 -13 -96 6 -106 5 -160 -20 -32 -14 -62 -26 -68 -26 -15 0 -59 -31 -59
-41 0 -22 53 -29 109 -15 125 31 154 36 219 36 94 0 124 -33 60 -65 -41 -19
-60 -35 -73 -59 -11 -19 -123 -82 -186 -104 -20 -7 -88 -15 -150 -19 -89 -5
-107 -8 -82 -15 57 -15 50 -78 -8 -78 -24 0 -35 -20 -18 -32 29 -19 97 -1 169
45 82 52 125 63 204 48 99 -18 136 -31 136 -47 0 -24 -29 -28 -104 -15 -61 10
-72 10 -85 -4 -15 -15 -14 -18 5 -34 16 -13 56 -21 145 -29 174 -17 354 -72
467 -143 11 -7 27 -9 37 -5 16 6 16 8 2 29 -8 12 -41 36 -73 53 -33 17 -60 38
-62 48 -4 19 9 20 62 5 56 -16 86 -5 86 30 0 36 12 45 82 60 33 7 67 22 83 37
14 13 29 24 33 24 7 0 62 -92 62 -104 0 -3 -8 -6 -17 -6 -10 0 -38 -16 -62
-35 -39 -31 -51 -35 -102 -35 -33 0 -59 -4 -59 -9 0 -5 18 -26 40 -47 27 -26
40 -47 40 -65 0 -14 8 -35 18 -45 31 -35 119 -92 214 -140 107 -54 178 -108
178 -136 0 -33 -29 -32 -83 3 -29 18 -92 54 -142 79 -49 26 -120 65 -158 88
-77 48 -250 135 -319 162 -39 15 -50 16 -65 5 -22 -16 -7 -37 40 -55 18 -7 50
-20 72 -29 49 -19 248 -120 255 -129 3 -4 21 -15 40 -24 63 -31 165 -89 185
-106 26 -22 54 -38 138 -79 37 -18 70 -41 73 -51 11 -36 22 -47 44 -44 13 1
30 -4 39 -12 9 -9 22 -12 29 -7 17 11 -27 91 -50 91 -13 0 -18 8 -18 28 0 15
-13 49 -30 75 -16 26 -26 47 -22 47 9 0 31 -34 116 -175 67 -112 76 -135 54
-135 -7 0 -24 -13 -38 -29 -33 -40 -195 -132 -242 -138 -55 -8 -51 21 6 47 24
12 52 29 62 38 10 10 40 32 67 50 26 18 47 36 47 40 0 4 -10 13 -21 20 -19 12
-26 10 -64 -17 -24 -17 -55 -35 -71 -41 -15 -6 -57 -32 -93 -58 -53 -37 -76
-47 -123 -53 -45 -5 -68 -14 -101 -41 -23 -19 -105 -62 -183 -96 -109 -48
-152 -62 -190 -62 -58 0 -143 -19 -249 -56 -71 -24 -87 -26 -173 -21 -68 5
-116 2 -171 -9 -81 -17 -268 -15 -421 5 -87 11 -375 2 -362 -11 5 -5 54 -14
108 -19 144 -15 226 -28 253 -43 13 -7 33 -33 45 -57 14 -30 28 -45 44 -47 31
-5 29 21 -4 42 -37 25 -31 70 11 74 45 6 96 -14 143 -54 50 -42 71 -41 94 5
10 19 25 39 34 44 25 14 89 -11 105 -40 20 -38 99 -65 99 -34 0 4 -11 13 -25
19 -14 6 -25 18 -25 27 0 29 47 45 173 60 69 8 148 24 177 35 56 22 149 27
168 8 7 -7 12 -20 12 -30 0 -14 -8 -18 -42 -18 -53 0 -98 -29 -75 -48 11 -10
26 -7 71 14 32 14 75 28 97 31 44 6 45 9 23 41 -8 12 -14 35 -12 50 3 25 6 27
53 26 28 0 86 -8 130 -18 102 -23 319 -18 405 10 67 22 136 66 132 85 -16 62
-14 81 8 104 13 14 27 25 32 25 4 0 30 14 56 30 77 47 90 43 144 -47 174 -294
218 -370 218 -378 0 -10 -206 -5 -242 6 -27 7 -40 17 -44 34 -16 64 17 89 78
57 24 -12 50 -27 59 -33 10 -8 26 -9 45 -4 28 8 28 9 -20 19 -72 17 -90 64
-32 86 26 9 44 30 27 30 -6 0 -11 5 -11 12 0 27 -86 158 -112 169 -27 11 -76
5 -111 -13 -18 -9 -18 -11 -1 -29 9 -10 42 -28 73 -40 69 -25 81 -35 81 -65 0
-18 -10 -29 -41 -44 -22 -12 -49 -37 -61 -56 -24 -40 -46 -43 -106 -14 -63 31
-162 22 -162 -14 0 -21 11 -26 81 -37 83 -13 119 -33 119 -64 0 -14 -1 -25 -2
-25 -2 0 -57 -11 -123 -25 -231 -48 -270 -55 -327 -55 -31 0 -80 -5 -110 -11
-29 -6 -78 -15 -108 -21 -30 -6 -80 -17 -110 -25 -104 -26 -398 -83 -427 -83
-15 0 -36 7 -46 14 -16 12 -25 12 -60 1 -35 -11 -381 -29 -497 -25 -14 0 -133
2 -265 4 -132 2 -267 8 -300 14 -33 6 -103 11 -155 11 -152 -2 -304 16 -343
40 -18 11 -51 24 -74 29 -34 8 -47 6 -72 -9 -17 -10 -31 -23 -31 -28 0 -15 68
-31 130 -31 30 0 90 -9 134 -20 56 -14 112 -20 195 -20 81 0 130 -5 161 -16
45 -16 237 -29 585 -37 163 -5 477 8 585 24 41 6 104 14 140 19 36 5 130 14
210 21 87 6 193 22 265 39 180 42 269 55 385 55 122 0 170 -17 170 -61 0 -34
-64 -63 -140 -64 -66 -1 -119 -18 -134 -43 -19 -31 13 -45 81 -36 32 4 68 6
79 3 22 -6 44 -42 44 -70 0 -23 -55 -74 -79 -74 -12 0 -21 -4 -21 -10 0 -5 5
-10 10 -10 6 0 10 -7 10 -15 0 -12 -16 -15 -80 -15 -64 0 -80 3 -80 15 0 29
-38 55 -81 55 -53 0 -79 -15 -79 -45 0 -24 -2 -25 -74 -25 -69 0 -75 2 -78 22
-2 15 -15 27 -41 37 -34 13 -42 12 -74 -3 -19 -9 -37 -26 -40 -36 -5 -18 -14
-20 -89 -20 -72 0 -87 3 -105 21 -16 16 -28 20 -53 15 -17 -3 -36 -13 -42 -21
-16 -22 -354 -22 -354 -1 0 26 -23 30 -41 8 -15 -19 -28 -22 -87 -22 -61 0
-70 2 -75 20 -3 11 -12 20 -21 20 -9 0 -25 -9 -36 -20 -17 -17 -33 -20 -111
-20 l-91 0 7 31 c8 37 -11 32 -25 -7 -9 -23 -12 -24 -124 -24 l-115 0 -3 26
c-5 44 -30 52 -83 26 -25 -12 -45 -29 -45 -37 0 -13 -20 -15 -120 -15 -99 0
-120 3 -120 15 0 21 32 35 79 35 51 0 59 13 26 46 l-26 26 -44 -41 c-24 -22
-56 -43 -70 -47 -15 -4 -82 -3 -148 0 -481 28 -478 28 -529 87 -43 49 -46 80
-9 89 13 3 30 15 37 26 12 17 12 23 0 39 -11 16 -29 18 -137 19 -130 1 -124
-1 -208 55 -12 8 -11 17 10 55 27 51 32 53 130 37 104 -17 139 -31 189 -76 49
-43 71 -52 103 -39 11 4 14 15 10 39 -4 27 -1 35 16 44 11 7 21 18 21 25 0 17
-43 36 -83 36 -49 0 -184 28 -215 45 -15 8 -38 23 -51 33 l-24 19 51 88 51 88
12 -27 c12 -26 11 -29 -20 -53 -31 -25 -32 -27 -15 -40 25 -18 62 -16 113 7
l44 20 -7 50 -7 49 38 10 c21 6 46 11 55 11 10 0 40 21 69 46 28 25 62 49 75
54 46 18 17 80 -44 95 -30 7 -110 43 -130 58 -10 8 -7 20 14 56 15 25 33 52
40 59 9 7 10 8 4 0 -18 -22 -11 -40 37 -86 l46 -46 158 -11 c137 -9 161 -13
187 -32 17 -12 69 -40 117 -62 90 -42 112 -43 148 -6 27 26 21 46 -33 113 -51
62 -51 62 -103 62 -74 0 -126 38 -127 93 0 23 4 27 30 27 24 0 35 -8 55 -40
26 -41 51 -51 61 -26 3 8 8 35 12 61 8 55 31 77 57 55 8 -7 40 -63 69 -124 36
-75 66 -124 94 -151 32 -31 42 -48 42 -72 0 -29 -4 -33 -42 -44 -34 -9 -39
-13 -25 -20 10 -6 40 -5 82 2 62 12 67 11 93 -9 48 -38 82 -53 115 -50 31 4
29 5 -35 37 -64 31 -124 85 -164 147 -10 16 -24 35 -30 41 -7 7 -20 34 -30 60
-9 27 -33 84 -52 128 -41 97 -53 182 -28 220 9 14 23 25 32 25 12 0 13 -9 8
-50 -6 -44 -4 -51 14 -57 11 -5 37 -30 58 -58 64 -85 160 -168 242 -209 36
-18 43 -46 12 -46 -12 0 -39 9 -62 20 -23 11 -57 22 -77 26 l-36 6 34 -29 c39
-32 167 -105 261 -148 63 -29 70 -30 243 -33 98 -2 217 1 264 8 78 10 173 43
181 62 2 4 8 8 13 8 5 0 33 16 62 35 28 19 57 35 62 35 20 0 77 48 103 87 14
21 41 80 59 133 19 52 41 108 49 125 14 28 13 30 -8 47 -32 24 -14 52 36 56
64 6 316 -128 316 -167 0 -11 -12 -28 -26 -38 -16 -12 -29 -34 -35 -63 -25
-114 -29 -121 -115 -208 -75 -76 -91 -102 -64 -102 6 0 31 13 57 29 27 16 86
41 133 56 103 32 434 195 438 216 1 9 -15 24 -40 37 -82 43 -153 85 -156 94
-2 4 -10 8 -18 8 -15 0 -44 16 -144 77 -106 65 -180 103 -270 140 -47 20 -112
49 -145 66 -63 32 -144 57 -184 57 -28 0 -61 26 -61 47 0 8 14 20 32 27 l31
13 -36 5 c-42 5 -64 -5 -94 -41 l-21 -26 -289 -7 c-158 -3 -301 -9 -318 -12
-16 -3 -72 -10 -124 -17 -52 -6 -120 -19 -150 -29 -31 -9 -83 -23 -116 -30
-33 -6 -70 -16 -83 -21 -13 -5 -31 -9 -40 -9 -9 0 -60 -16 -112 -35 -52 -20
-135 -44 -184 -54 -100 -21 -136 -48 -136 -100 0 -27 -4 -30 -71 -46 -86 -21
-151 -54 -203 -103 l-39 -37 24 45 c14 25 52 91 84 147 55 92 63 102 100 113
22 7 65 25 95 41 70 38 121 46 151 26 20 -14 25 -14 52 -1 27 15 29 18 23 59
-6 37 -4 46 16 65 94 87 284 185 389 200 35 5 93 18 128 30 76 24 110 25 158
5 56 -24 94 -19 126 14 16 18 51 37 85 47 l57 18 -95 9 c-70 7 -107 6 -140 -3
-70 -19 -260 -50 -312 -50 -40 0 -48 3 -48 18 0 11 12 24 28 31 61 28 92 55
92 84 0 61 -80 37 -114 -34 -23 -49 -76 -89 -115 -89 -14 0 -46 14 -71 31 -25
17 -57 33 -72 36 -20 4 -28 12 -28 26 0 19 4 19 76 13 98 -9 193 19 164 48 -5
5 -10 16 -10 22 0 13 54 44 75 44 18 0 193 58 240 79 22 10 74 29 115 41 41
13 81 28 87 33 19 14 85 36 111 37 12 0 22 -6 22 -12z m1074 -147 c16 -17 14
-18 -38 -25 -57 -6 -114 -33 -195 -91 -25 -18 -79 -50 -118 -70 -66 -34 -79
-37 -133 -33 -49 3 -65 9 -90 33 -38 37 -38 68 -1 94 16 12 32 21 35 21 4 0
25 12 48 27 37 25 53 28 167 35 69 5 160 12 201 17 41 4 82 9 91 10 9 0 23 -7
33 -18z m-9 -139 c39 -21 50 -32 50 -52 0 -51 -104 -63 -167 -18 -30 21 -38
64 -16 86 20 20 80 12 133 -16z m-2074 -105 c-18 -18 -23 -1 -9 29 13 28 13
28 16 5 2 -13 -1 -28 -7 -34z m1937 33 c15 -14 22 -33 22 -57 l0 -36 -55 6
c-139 14 -173 107 -40 107 38 0 57 -5 73 -20z m-1803 -50 c3 -6 3 -19 0 -30
-9 -28 -95 -30 -95 -2 0 10 5 23 12 30 15 15 74 16 83 2z m109 -56 c25 -10 20
-51 -6 -58 -36 -9 -45 -7 -52 10 -16 40 14 65 58 48z m-233 -84 c20 -11 26
-45 8 -55 -16 -11 -79 5 -86 21 -14 38 32 58 78 34z m2328 -16 c25 -32 27 -60
5 -68 -9 -3 -42 -6 -74 -6 -58 0 -70 8 -70 45 0 27 42 55 81 55 29 0 42 -6 58
-26z m67 -122 c6 -4 14 -17 18 -29 6 -20 4 -23 -21 -23 -33 0 -53 16 -53 42 0
19 34 25 56 10z m-1296 -116 c0 -18 -53 -63 -95 -80 -18 -8 -36 -19 -40 -25
-9 -16 22 -62 46 -68 26 -7 24 -37 -5 -52 -13 -7 -33 -30 -45 -51 -30 -53 -63
-62 -146 -39 -73 20 -175 149 -161 204 9 35 68 66 144 76 126 16 207 29 237
38 44 14 65 13 65 -3z m1405 -57 c8 -23 1 -34 -14 -24 -13 8 -15 45 -2 45 5 0
13 -9 16 -21z m-1044 -11 c5 -73 -5 -171 -22 -225 -22 -68 -84 -138 -160 -180
-42 -24 -142 -32 -154 -13 -9 14 -68 13 -83 -2 -7 -7 -12 -22 -12 -34 0 -12
-7 -27 -15 -34 -23 -19 -65 2 -65 33 0 13 -5 28 -12 35 -14 14 -74 16 -83 3
-3 -6 -25 -13 -49 -16 -53 -8 -101 6 -171 49 -27 17 -68 40 -89 51 -54 28
-120 123 -136 197 -14 66 -5 88 36 88 26 0 29 -9 14 -59 -11 -39 2 -69 52
-127 59 -67 204 -154 258 -154 39 0 38 16 -2 34 -49 21 -118 74 -118 91 0 23
17 19 100 -24 84 -44 156 -67 243 -77 57 -6 69 -4 285 49 34 8 50 19 70 50 53
79 65 111 69 187 3 41 6 81 8 88 7 21 35 13 36 -10z m-1533 -80 c-4 -29 -55
-39 -65 -13 -7 20 12 35 45 35 19 0 23 -5 20 -22z m-480 -459 c72 -39 82 -47
82 -69 0 -26 -18 -29 -119 -23 l-91 6 32 58 c18 33 34 59 36 59 2 0 29 -14 60
-31z m2778 -83 c8 -8 14 -26 14 -39 0 -21 -6 -25 -41 -31 -22 -4 -44 -4 -50
-1 -17 11 -9 54 13 69 28 20 45 20 64 2z m198 -50 c3 -14 3 -32 0 -40 -7 -17
-44 -22 -44 -6 0 6 -7 10 -15 10 -10 0 -15 10 -15 30 0 27 3 30 34 30 27 0 35
-5 40 -24z m521 -347 c57 -16 75 -35 75 -81 0 -32 -4 -40 -26 -48 -64 -25
-240 -3 -324 40 -53 27 -56 64 -7 85 39 17 224 20 282 4z m243 -131 c17 -32
32 -75 35 -109 6 -51 4 -59 -18 -83 -14 -15 -25 -34 -25 -42 0 -7 -6 -14 -14
-14 -8 0 -21 -8 -28 -18 -7 -11 -39 -29 -71 -40 -53 -20 -77 -22 -292 -22
-200 0 -235 2 -235 15 0 8 12 21 28 29 15 8 35 23 45 34 18 19 17 20 -38 51
-43 24 -55 36 -55 55 0 14 6 28 13 33 75 49 335 41 426 -13 27 -16 44 -54 23
-54 -4 0 -44 -5 -89 -10 -87 -11 -142 -29 -162 -54 -11 -13 -9 -17 14 -26 35
-13 78 -12 148 5 62 14 87 29 87 51 0 22 44 27 105 11 l57 -14 19 31 c24 39
24 46 1 46 -34 0 -82 31 -88 56 -10 39 7 49 60 35 25 -6 47 -11 50 -11 3 0 -3
24 -14 53 -22 57 -22 57 -16 57 2 0 17 -24 34 -52z m-4035 -125 c66 -35 76
-67 24 -77 -68 -13 -75 -60 -12 -72 29 -5 49 0 101 26 75 37 96 36 105 -5 3
-17 8 -37 10 -45 3 -13 -17 -15 -141 -15 l-145 0 -41 42 c-79 81 -113 150 -86
177 15 17 133 -3 185 -31z"/>
<path d="M2874 3707 c-28 -25 -26 -47 5 -47 19 0 61 40 61 58 0 20 -37 13 -66
-11z"/>
<path d="M2582 3709 c-13 -5 -22 -15 -20 -21 8 -22 53 -41 81 -34 28 7 52 40
42 56 -8 12 -72 12 -103 -1z"/>
<path d="M2930 3488 c0 -87 42 -101 112 -39 28 25 30 31 19 45 -8 10 -29 16
-54 16 -24 0 -48 7 -59 17 -17 15 -18 14 -18 -39z"/>
<path d="M2678 3282 c-37 -22 -35 -28 10 -39 70 -18 135 19 83 47 -28 15 -62
12 -93 -8z"/>
<path d="M2988 3284 c-21 -9 -38 -19 -38 -23 0 -30 163 -42 209 -17 l25 14
-31 15 c-47 25 -122 30 -165 11z"/>
<path d="M2422 3271 c-27 -16 -9 -46 29 -49 44 -4 94 31 69 48 -18 12 -80 13
-98 1z"/>
<path d="M2151 2907 c-13 -6 -23 -16 -23 -22 2 -17 42 -17 69 0 20 14 23 19
12 26 -19 12 -30 11 -58 -4z"/>
<path d="M2283 2803 c-29 -11 -10 -21 30 -16 63 8 81 22 27 22 -25 0 -51 -3
-57 -6z"/>
<path d="M2027 2543 c-26 -25 18 -52 53 -33 17 9 19 14 9 26 -12 14 -51 19
-62 7z"/>
<path d="M1773 2435 c-20 -19 -34 -38 -30 -41 5 -5 110 30 126 42 2 2 -2 10
-9 19 -20 24 -47 18 -87 -20z"/>
<path d="M1611 2361 c-16 -10 -6 -31 14 -31 8 0 29 9 47 20 l33 20 -40 0 c-22
0 -46 -4 -54 -9z"/>
<path d="M3281 2051 c-12 -8 -12 -13 2 -34 9 -14 21 -46 28 -71 10 -40 9 -54
-6 -93 -18 -46 -68 -103 -91 -103 -13 0 -74 -65 -74 -79 0 -5 -27 -36 -61 -69
-52 -52 -59 -63 -50 -80 6 -11 22 -22 35 -24 30 -6 50 13 93 92 17 30 66 91
108 135 47 48 87 100 100 130 13 28 30 57 39 64 39 32 2 104 -67 130 -34 13
-38 13 -56 2z"/>
<path d="M1270 1592 l-23 -18 28 -22 c33 -26 48 -27 69 -6 21 20 20 34 -1 50
-25 18 -47 17 -73 -4z"/>
<path d="M1137 1463 c-24 -23 41 -71 77 -57 24 9 19 22 -16 44 -35 21 -50 24
-61 13z"/>
<path d="M1385 1394 c-20 -15 -20 -15 -1 -30 41 -30 143 -2 115 32 -15 19 -89
17 -114 -2z"/>
<path d="M967 1322 c-36 -40 -7 -61 42 -31 18 11 31 25 28 32 -6 20 -52 20
-70 -1z"/>
<path d="M3679 1326 c-6 -6 -182 -52 -269 -70 -41 -9 -131 -29 -200 -46 -291
-70 -228 -65 -785 -65 -436 0 -526 3 -618 18 -124 20 -192 12 -167 -18 22 -27
149 -43 460 -56 294 -13 269 -13 560 -5 129 4 260 11 290 16 30 6 102 19 160
29 58 11 159 30 225 42 131 24 215 44 345 84 95 29 124 75 47 75 -24 0 -46 -2
-48 -4z"/>
<path d="M1180 1277 c-52 -26 -11 -66 73 -70 39 -2 42 0 45 25 3 23 -2 30 -34
43 -44 18 -52 18 -84 2z"/>
<path d="M1872 1274 c-28 -19 -28 -40 0 -47 42 -11 74 23 46 51 -15 15 -19 15
-46 -4z"/>
<path d="M2982 1258 c3 -7 13 -15 22 -16 12 -3 17 1 14 10 -3 7 -13 15 -22 16
-12 3 -17 -1 -14 -10z"/>
<path d="M1453 1205 c-27 -24 -28 -25 -9 -40 11 -8 23 -15 28 -15 16 0 48 40
48 60 0 28 -32 26 -67 -5z"/>
<path d="M1030 901 c-19 -16 -31 -33 -27 -38 5 -4 57 -8 115 -8 91 0 114 -3
151 -22 52 -27 113 -30 131 -7 11 12 10 18 -4 32 -13 13 -42 18 -124 23 -65 4
-119 12 -137 22 -57 29 -69 29 -105 -2z"/>
<path d="M3466 910 c-50 -25 -51 -27 -36 -45 26 -31 160 -11 160 24 0 44 -58
54 -124 21z"/>
<path d="M1804 889 c-10 -17 13 -36 27 -22 12 12 4 33 -11 33 -5 0 -12 -5 -16
-11z"/>
<path d="M3196 880 c-62 -24 -76 -37 -56 -51 27 -18 112 -4 132 21 38 47 2 61
-76 30z"/>
<path d="M2886 859 c-21 -17 -24 -24 -15 -35 16 -20 63 -17 83 4 15 18 15 20
-2 35 -24 22 -34 21 -66 -4z"/>
<path d="M2599 851 c-22 -18 -23 -20 -6 -27 23 -8 70 12 64 29 -6 20 -32 19
-58 -2z"/>
<path d="M2295 844 c-17 -18 -17 -45 1 -51 6 -2 22 5 35 16 20 16 21 21 10 35
-17 20 -25 20 -46 0z"/>
</g>
</svg>
